<svg t="1594965444252" class="icon" viewBox="0 0 1024 1024" version="1.1" xmlns="http://www.w3.org/2000/svg" p-id="2931" width="14" height="14"><path d="M624.76 863.64c0 5.52-4.48 10-10 10h-223.6c-5.52 0-10-4.48-10-10s4.48-10 10-10h223.6c5.52 0 10 4.48 10 10zM627.36 492.58l-84.92 84.92a9.98 9.98 0 0 1-7.08 2.94 9.9 9.9 0 0 1-7.06-2.94 9.97 9.97 0 0 1 0-14.14l84.92-84.92a10.006 10.006 0 0 1 14.14 0 10.006 10.006 0 0 1 0 14.14zM594.78 460l-55.46 55.44a9.97 9.97 0 0 1-14.14 0 10.006 10.006 0 0 1 0-14.14l55.46-55.44a9.97 9.97 0 0 1 14.14 0 10.006 10.006 0 0 1 0 14.14zM562.18 427.4l-30.9 30.9a9.9 9.9 0 0 1-7.06 2.94 10.006 10.006 0 0 1-7.08-17.08l30.9-30.9a10.006 10.006 0 0 1 14.14 0 9.97 9.97 0 0 1 0 14.14zM692.54 557.74l-30.92 30.92c-1.94 1.94-4.5 2.92-7.06 2.92-2.56 0-5.12-0.98-7.08-2.92a10.006 10.006 0 0 1 0-14.14l30.92-30.92a10.006 10.006 0 0 1 14.14 0 10.006 10.006 0 0 1 0 14.14zM659.94 525.16l-55.44 55.46a10.044 10.044 0 0 1-14.16 0 10.006 10.006 0 0 1 0-14.14l55.46-55.46a10.006 10.006 0 0 1 14.14 0 9.97 9.97 0 0 1 0 14.14z" fill="#23130D" p-id="2932"></path><path d="M981.64 317.84c14.72-14.72 14.72-38.7 0-53.44l-140.26-140.24a37.514 37.514 0 0 0-26.72-11.06c-0.64 0-1.28 0.06-1.94 0.08-0.28 0-0.54 0.02-0.82 0.04-9.04 0.66-17.48 4.46-23.96 10.94l-109.66 109.66H149.48c-6.62 0-13.04 0.84-19.16 2.42-33.1 8.54-57.62 38.62-57.62 74.34 0 0.02 0.02 0.06 0.02 0.08v505.72H41.3c-5.52 0-10 4.48-10 10v41.4c0 3.84 2.2 7.32 5.64 9l68.32 33.12c1.36 0.66 2.86 1 4.36 1h786.68c1.5 0 3-0.34 4.36-1l68.32-33.12a10.02 10.02 0 0 0 5.64-9v-41.4c0-5.52-4.48-10-10-10H933.2V366.28l48.44-48.44z m-181.92-177.16l-29.34 177.34-177.34 29.34L799.72 140.68z m-223.2 248.34l140.24 140.24c7.14 7.14 16.62 11.08 26.72 11.08s19.58-3.94 26.72-11.08l97.46-97.46v343.16H138.26V306.4h467.44l-29.18 29.2c-6.52 6.5-10.32 14.98-10.94 24.08-0.02 0.18-0.04 0.38-0.04 0.56-0.02 0.7-0.1 1.38-0.1 2.06 0 10.1 3.94 19.58 11.08 26.72z m-483.8-78.46c0-26.4 18.12-48.64 42.58-54.94 4.54-1.18 9.28-1.8 14.18-1.8H658.28l-32.58 32.58H128.26c-5.52 0-10 4.48-10 10v488.56c0 5.54 4.48 10 10 10h749.4c5.52 0 10-4.46 10-10V411.8l25.54-25.54v430.12H92.72V310.56z m861.9 525.82v25.14L894 890.9H111.92l-60.62-29.38v-25.14h903.32z m-38.48-481.34c0 0.02-0.02 0.02-0.02 0.04l-45.52 45.5c0 0.02-0.02 0.02-0.02 0.02l-114.52 114.52a17.67 17.67 0 0 1-12.58 5.22c-4.74 0-9.22-1.86-12.58-5.22l-140.24-140.24c-1.8-1.8-3.14-3.9-4.02-6.2l194.06-32.1c0.02 0 0.04 0 0.06-0.02 0.64-0.1 1.26-0.26 1.84-0.48l0.48-0.24c0.4-0.18 0.8-0.36 1.18-0.58 0.22-0.14 0.4-0.3 0.62-0.44 0.28-0.2 0.58-0.42 0.84-0.66 0.2-0.18 0.38-0.36 0.54-0.54a9.184 9.184 0 0 0 1.7-2.38c0.12-0.24 0.24-0.46 0.34-0.72 0.12-0.3 0.22-0.64 0.32-0.96 0.1-0.28 0.18-0.56 0.24-0.86 0.02-0.12 0.06-0.22 0.08-0.36l32.1-194.06c2.3 0.88 4.4 2.22 6.2 4.02l140.26 140.26c6.92 6.92 6.92 18.2 0 25.14l-51.36 51.34z" fill="#23130D" p-id="2933"></path><path d="M51.3 836.38v25.14l60.62 29.38H894l60.62-29.38v-25.14H51.3z m563.46 37.26h-223.6c-5.52 0-10-4.48-10-10s4.48-10 10-10h223.6c5.52 0 10 4.48 10 10s-4.48 10-10 10z" fill="#E1E1E5" p-id="2934"></path><path d="M894 866.9H624.22a10.02 10.02 0 0 1-9.46 6.74h-223.6a10.02 10.02 0 0 1-9.46-6.74H111.92l-60.62-29.38v24l60.62 29.38H894l60.62-29.38v-24L894 866.9z" fill="#23130D" opacity=".2" p-id="2935"></path><path d="M913.2 386.26v430.12H92.72V310.56c0-26.4 18.12-48.64 42.58-54.94 4.54-1.18 9.28-1.8 14.18-1.8H658.28l-32.58 32.58H128.26c-5.52 0-10 4.48-10 10v488.56c0 5.54 4.48 10 10 10h749.4c5.52 0 10-4.46 10-10V411.8l25.54-25.54z" fill="#E1E1E5" p-id="2936"></path><path d="M799.72 140.68l-29.34 177.34-177.34 29.34z" fill="#F9C139" p-id="2937"></path><path d="M967.5 303.7l-51.36 51.34c0 0.02-0.02 0.02-0.02 0.04l-45.52 45.5c0 0.02-0.02 0.02-0.02 0.02l-114.52 114.52a17.67 17.67 0 0 1-12.58 5.22c-4.74 0-9.22-1.86-12.58-5.22l-140.24-140.24c-1.8-1.8-3.14-3.9-4.02-6.2l194.06-32.1c0.02 0 0.04 0 0.06-0.02 0.64-0.1 1.26-0.26 1.84-0.48l0.48-0.24c0.4-0.18 0.8-0.36 1.18-0.58 0.22-0.14 0.4-0.3 0.62-0.44 0.28-0.2 0.58-0.42 0.84-0.66 0.2-0.18 0.38-0.36 0.54-0.54a9.184 9.184 0 0 0 1.7-2.38c0.12-0.24 0.24-0.46 0.34-0.72 0.12-0.3 0.22-0.64 0.32-0.96 0.1-0.28 0.18-0.56 0.24-0.86 0.02-0.12 0.06-0.22 0.08-0.36l32.1-194.06c2.3 0.88 4.4 2.22 6.2 4.02l140.26 140.26c6.92 6.92 6.92 18.2 0 25.14z" fill="#F9C139" p-id="2938"></path><path d="M841.8 152.88c-1.64-1.46-3.5-2.6-5.52-3.36l-32.1 194.06c-0.02 0.14-0.06 0.24-0.08 0.36-0.06 0.3-0.14 0.58-0.24 0.86-0.1 0.32-0.2 0.66-0.32 0.96-0.1 0.26-0.22 0.48-0.34 0.72-0.16 0.32-0.34 0.64-0.54 0.94a9.184 9.184 0 0 1-1.16 1.44c-0.16 0.18-0.34 0.36-0.54 0.54-0.26 0.24-0.56 0.46-0.84 0.66-0.22 0.14-0.4 0.3-0.62 0.44-0.38 0.22-0.78 0.4-1.18 0.58l-0.48 0.24c-0.58 0.22-1.2 0.38-1.84 0.48-0.02 0.02-0.04 0.02-0.06 0.02l-194.06 32.1c0.88 2.3 2.22 4.4 4.02 6.2l-15.24-15.24c-1.8-1.8-3.14-3.9-4.02-6.2l194.06-32.1c0.02 0 0.04 0 0.06-0.02 0.64-0.1 1.26-0.26 1.84-0.48l0.48-0.24c0.4-0.18 0.8-0.36 1.18-0.58 0.22-0.14 0.4-0.3 0.62-0.44 0.28-0.2 0.58-0.42 0.84-0.66 0.2-0.18 0.38-0.36 0.54-0.54a9.184 9.184 0 0 0 1.7-2.38c0.12-0.24 0.24-0.46 0.34-0.72 0.12-0.3 0.22-0.64 0.32-0.96 0.1-0.28 0.18-0.56 0.24-0.86 0.02-0.12 0.06-0.22 0.08-0.36l32.1-194.06c2.3 0.88 4.4 2.22 6.2 4.02l14.56 14.58z" fill="#23130D" opacity=".2" p-id="2939"></path><path d="M770.2 529.26c-7.14 7.14-16.62 11.08-26.72 11.08s-19.58-3.94-26.72-11.08l-140.24-140.24c-7.14-7.14-11.08-16.62-11.08-26.72 0-0.68 0.08-1.36 0.1-2.06 0-0.18 0.02-0.38 0.04-0.56 0.62-9.1 4.42-17.58 10.94-24.08l29.18-29.2H138.26v468.56h729.4V431.8l-97.46 97.46z m-77.66 14.34a10.006 10.006 0 0 1 0 14.14l-30.92 30.92c-1.94 1.94-4.5 2.92-7.06 2.92-2.56 0-5.12-0.98-7.08-2.92a10.006 10.006 0 0 1 0-14.14l30.92-30.92a10.006 10.006 0 0 1 14.14 0z m-65.18-65.16a10.006 10.006 0 0 1 0 14.14l-84.92 84.92a9.98 9.98 0 0 1-7.08 2.94 9.9 9.9 0 0 1-7.06-2.94 9.97 9.97 0 0 1 0-14.14l41.52-41.52 43.4-43.4a10.006 10.006 0 0 1 14.14 0z m-110.22-34.28l30.9-30.9a10.006 10.006 0 0 1 14.14 0 9.97 9.97 0 0 1 0 14.14l-30.9 30.9a9.9 9.9 0 0 1-7.06 2.94 10.006 10.006 0 0 1-7.08-17.08z m63.5 1.7a9.97 9.97 0 0 1 14.14 0 10.006 10.006 0 0 1 0 14.14l-43.4 43.4-12.06 12.04a9.97 9.97 0 0 1-14.14 0 10.006 10.006 0 0 1 0-14.14l12.06-12.04 43.4-43.4z m23.86 134.76a10.044 10.044 0 0 1-14.16 0 10.006 10.006 0 0 1 0-14.14l12.06-12.06 43.4-43.4a10.006 10.006 0 0 1 14.14 0 9.97 9.97 0 0 1 0 14.14l-43.4 43.4-12.04 12.06z" fill="#3594BF" p-id="2940"></path><path d="M92.72 806.334H913.2v10.046H92.72z" fill="#23130D" opacity=".2" p-id="2941"></path><path d="M545.74 774.96h-85.64L138.26 453.12v-85.64zM644.9 774.96h-65.84l-440.8-440.8V306.4h38.08zM822.94 774.96h-109.44L244.94 306.4h109.44l182.86 182.86-12.06 12.04a10.006 10.006 0 0 0 0 14.14 9.97 9.97 0 0 0 14.14 0l12.06-12.04 18.44 18.44-41.52 41.52a9.97 9.97 0 0 0 0 14.14 9.9 9.9 0 0 0 7.06 2.94c2.56 0 5.12-0.98 7.08-2.94l41.52-41.52 18.44 18.44-12.06 12.06a10.006 10.006 0 0 0 0 14.14 10.044 10.044 0 0 0 14.16 0l12.04-12.06 206.4 206.4z" fill="#FFFFFF" opacity=".4" p-id="2942"></path></svg>
