<svg t="1594965540773" class="icon" viewBox="0 0 1024 1024" version="1.1" xmlns="http://www.w3.org/2000/svg" p-id="3694" width="14" height="14"><path d="M697.4 986H326.6c-39.8 0-72-32.2-72-72V120c0-39.8 32.2-72 72-72h370.8c39.8 0 72 32.2 72 72v794c0 39.8-32.2 72-72 72z" fill="#28B1D5" p-id="3695"></path><path d="M697.4 986H326.6c-39.8 0-72-32.2-72-72V809h514.8v105c0 39.8-32.2 72-72 72z" fill="#198EBC" p-id="3696"></path><path d="M254.6 250.7v302.5L687.5 986h9.9c39.8 0 72-32.2 72-72V765.5L254.6 250.7zM769.4 631.6V554L280.3 64.9c-14.9 12.6-24.7 31.1-25.6 52l514.7 514.7z" fill="#FFFFFF" p-id="3697"></path><path d="M697.4 996H326.6c-45.2 0-82-36.8-82-82V120c0-45.2 36.8-82 82-82h370.8c45.2 0 82 36.8 82 82v794c0 45.2-36.8 82-82 82zM326.6 58c-34.2 0-62 27.8-62 62v794c0 34.2 27.8 62 62 62h370.8c34.2 0 62-27.8 62-62V120c0-34.2-27.8-62-62-62H326.6z" fill="#322E63" p-id="3698"></path><path d="M697.4 986H326.6c-39.8 0-72-32.2-72-72v-48.5h514.8V914c0 39.8-32.2 72-72 72z" fill="#FFFFFF" p-id="3699"></path><path d="M697.4 996H326.6c-45.2 0-82-36.8-82-82v-58.5h534.8V914c0 45.2-36.8 82-82 82zM264.6 875.5V914c0 34.2 27.8 62 62 62h370.8c34.2 0 62-27.8 62-62v-38.5H264.6z" fill="#322E63" p-id="3700"></path><path d="M697.4 48H326.6c-39.8 0-72 32.2-72 72v48.5h514.8V120c0-39.8-32.2-72-72-72z" fill="#FFFFFF" p-id="3701"></path><path d="M779.4 178.5H244.6V120c0-45.2 36.8-82 82-82h370.8c45.2 0 82 36.8 82 82v58.5z m-514.8-20h494.8V120c0-34.2-27.8-62-62-62H326.6c-34.2 0-62 27.8-62 62v38.5z" fill="#322E63" p-id="3702"></path><path d="M512 925.7m-21.9 0a21.9 21.9 0 1 0 43.8 0 21.9 21.9 0 1 0-43.8 0Z" fill="#322E63" p-id="3703"></path><path d="M584.9 115.7h-0.9c-5.5 0-10-4.5-10-10s4.5-10 10-10h0.9c5.5 0 10 4.5 10 10s-4.5 10-10 10zM537.2 115.7h-98.1c-5.5 0-10-4.5-10-10s4.5-10 10-10h98.1c5.5 0 10 4.5 10 10s-4.5 10-10 10z" fill="#322E63" p-id="3704"></path></svg>
